HIERARCHY
ROOT Hips
{
 OFFSET 0.000000 0.000000 0.000000
 CHANNELS 6 Xposition Yposition Zposition Yrotation Xrotation Zrotation
 JOINT Chest
 {
  OFFSET 0.000000 9.588913 -0.003946
  CHANNELS 3 Yrotation Xrotation Zrotation
  JOINT Chest2
  {
   OFFSET 0.000000 9.541882 0.008053
   CHANNELS 3 Yrotation Xrotation Zrotation
   JOINT Chest3
   {
    OFFSET 0.000000 9.501360 0.000000
    CHANNELS 3 Yrotation Xrotation Zrotation
    JOINT Chest4
    {
     OFFSET 0.000000 9.491660 0.000000
     CHANNELS 3 Yrotation Xrotation Zrotation
     JOINT Neck
     {
      OFFSET 0.000000 14.331917 0.000000
      CHANNELS 3 Yrotation Xrotation Zrotation
      JOINT Head
      {
       OFFSET 0.000000 8.884799 0.017034
       CHANNELS 3 Yrotation Xrotation Zrotation
       End Site
       {
        OFFSET 0.000000 16.896195 0.008993
       }
      }
     }
     JOINT RightCollar
     {
      OFFSET -2.923010 9.499495 0.000000
      CHANNELS 3 Yrotation Xrotation Zrotation
      JOINT RightShoulder
      {
       OFFSET -13.795216 0.000000 0.000000
       CHANNELS 3 Yrotation Xrotation Zrotation
       JOINT RightElbow
       {
        OFFSET -30.272209 0.000000 0.000000
        CHANNELS 3 Yrotation Xrotation Zrotation
        JOINT RightWrist
        {
         OFFSET -24.478199 0.000000 0.000000
         CHANNELS 3 Yrotation Xrotation Zrotation
         End Site
         {
          OFFSET -18.090752 0.000000 0.000000
         }
        }
       }
      }
     }
     JOINT LeftCollar
     {
      OFFSET 2.923010 9.499495 0.000000
      CHANNELS 3 Yrotation Xrotation Zrotation
      JOINT LeftShoulder
      {
       OFFSET 13.795216 0.000000 0.000000
       CHANNELS 3 Yrotation Xrotation Zrotation
       JOINT LeftElbow
       {
        OFFSET 30.272209 0.000000 0.000000
        CHANNELS 3 Yrotation Xrotation Zrotation
        JOINT LeftWrist
        {
         OFFSET 24.478199 0.000000 0.000000
         CHANNELS 3 Yrotation Xrotation Zrotation
         End Site
         {
          OFFSET 18.090752 0.000000 0.000000
         }
        }
       }
      }
     }
    }
   }
  }
 }
 JOINT RightHip
 {
  OFFSET -7.826875 0.019532 0.001973
  CHANNELS 3 Yrotation Xrotation Zrotation
  JOINT RightKnee
  {
   OFFSET 0.000000 -40.546152 -0.001885
   CHANNELS 3 Yrotation Xrotation Zrotation
   JOINT RightAnkle
   {
    OFFSET 0.000000 -39.417092 -0.003189
    CHANNELS 3 Yrotation Xrotation Zrotation
    JOINT RightToe
    {
     OFFSET 0.000000 -7.579396 17.243563
     CHANNELS 3 Yrotation Xrotation Zrotation
     End Site
     {
      OFFSET 0.000000 -1.500329 6.694466
     }
    }
   }
  }
 }
 JOINT LeftHip
 {
  OFFSET 7.826875 0.019532 0.001973
  CHANNELS 3 Yrotation Xrotation Zrotation
  JOINT LeftKnee
  {
   OFFSET 0.000000 -40.546152 -0.001885
   CHANNELS 3 Yrotation Xrotation Zrotation
   JOINT LeftAnkle
   {
    OFFSET 0.000000 -39.417092 -0.003189
    CHANNELS 3 Yrotation Xrotation Zrotation
    JOINT LeftToe
    {
     OFFSET 0.000000 -7.579396 17.243563
     CHANNELS 3 Yrotation Xrotation Zrotation
     End Site
     {
      OFFSET 0.000000 -1.500329 6.694466
     }
    }
   }
  }
 }
}
MOTION
Frames: 8
Frame Time: 0.008333
-25.186737 47.599801 -22.771395 27.374565 -33.091600 -0.763875 2.212919 12.058096 1.557359 1.232171 6.895081 0.833068 1.558851 8.615863 1.066644 1.232171 6.895081 0.833068 3.974542 25.458875 -1.557417 4.706561 2.096893 -2.612531 8.956426 -1.439393 -2.595412 11.922827 -22.481011 69.810407 73.721036 13.077919 11.975395 -12.423839 3.479657 -7.173460 6.287854 -3.915912 1.772572 -2.679732 -22.443517 -77.392192 -75.305031 -11.399560 -39.140254 18.700488 5.932153 7.820669 23.426695 -51.325810 -27.257142 127.148158 69.615534 136.629458 -9.966774 -15.996750 7.370775 -0.074384 0.034441 -0.035946 24.821039 -54.874296 -21.411211 99.745628 66.567724 121.928310 -1.972354 -8.289335 -9.105450 0.062897 0.001648 0.031822
-25.187108 47.599129 -22.773053 27.370108 -33.087674 -0.761301 2.212949 12.063551 1.554768 1.232143 6.898894 0.833007 1.558827 8.620628 1.066582 1.232143 6.898894 0.833007 3.977487 25.445452 -1.562744 4.710857 2.080589 -2.618998 8.962977 -1.440607 -2.594583 11.915878 -22.468686 69.834958 73.746437 13.053545 11.914085 -12.433259 3.503410 -7.169471 6.288300 -3.926781 1.756428 -2.617019 -22.411835 -77.476187 -75.309657 -11.397248 -39.131075 18.702215 5.971319 7.826378 23.433472 -51.330925 -27.260767 127.144290 69.614601 136.620962 -9.970500 -15.993963 7.382990 -0.080634 0.034075 -0.041531 24.828833 -54.878690 -21.410691 99.741135 66.569847 121.923531 -1.978310 -8.290050 -9.106216 0.064672 0.002677 0.033458
-25.188021 47.598696 -22.774507 27.364346 -33.084569 -0.762312 2.213838 12.071393 1.554307 1.232381 6.903396 0.833399 1.559147 8.626254 1.067096 1.232381 6.903396 0.833399 3.980586 25.430507 -1.568169 4.715323 2.062410 -2.625600 8.970022 -1.447734 -2.594202 11.907474 -22.458477 69.867032 73.774304 13.031669 11.852638 -12.460956 3.527910 -7.158548 6.289281 -3.941296 1.739753 -2.557373 -22.378992 -77.564148 -75.317399 -11.389309 -39.113541 18.701983 6.013111 7.830164 23.434594 -51.336873 -27.257543 127.141602 69.613964 136.614571 -9.967364 -15.992612 7.388546 -0.082548 0.033688 -0.043581 24.832760 -54.884037 -21.403242 99.743242 66.574609 121.925038 -1.979142 -8.291956 -9.106421 0.066363 0.003942 0.034593
-25.189739 47.598381 -22.775786 27.356351 -33.081587 -0.767165 2.216410 12.079238 1.557440 1.233423 6.908243 0.834277 1.560484 8.632307 1.068235 1.233423 6.908243 0.834277 3.982432 25.415988 -1.573608 4.718413 2.044686 -2.631927 8.978542 -1.455889 -2.594146 11.890412 -22.454866 69.907683 73.801533 13.016652 11.794643 -12.498934 3.552473 -7.141278 6.291751 -3.955392 1.723231 -2.506128 -22.346941 -77.656324 -75.333345 -11.368626 -39.083023 18.698885 6.056866 7.824206 23.431910 -51.343526 -27.248032 127.135347 69.615478 136.606790 -9.953172 -15.991654 7.384445 -0.077742 0.033636 -0.040702 24.833310 -54.892546 -21.388721 99.748627 66.578314 121.928810 -1.978705 -8.293553 -9.104699 0.064780 0.004479 0.034847
-25.191904 47.598005 -22.777306 27.345539 -33.077406 -0.771959 2.220288 12.084532 1.561332 1.235565 6.913105 0.835365 1.563202 8.638376 1.069658 1.235565 6.913105 0.835365 3.982707 25.403830 -1.578408 4.719653 2.029781 -2.637198 8.987612 -1.462271 -2.593338 11.864117 -22.456466 69.955073 73.825639 13.009397 11.738656 -12.538585 3.577119 -7.120298 6.294350 -3.967065 1.708038 -2.462349 -22.316779 -77.749167 -75.360187 -11.335247 -39.045528 18.696962 6.101238 7.810076 23.432167 -51.351981 -27.238451 127.124219 69.618602 136.596816 -9.941249 -15.987585 7.377792 -0.072364 0.033085 -0.036772 24.835906 -54.902946 -21.373153 99.748466 66.581923 121.927780 -1.979852 -8.292733 -9.103859 0.062402 0.004185 0.035693
-25.193795 47.597707 -22.779076 27.335056 -33.074132 -0.774005 2.223790 12.089733 1.563386 1.238144 6.917819 0.836518 1.566469 8.644257 1.071170 1.238144 6.917818 0.836518 3.981160 25.394742 -1.582459 4.718750 2.018550 -2.641236 8.992811 -1.466988 -2.591958 11.833704 -22.459904 70.004524 73.849327 13.004802 11.686415 -12.578296 3.604934 -7.102087 6.294093 -3.978431 1.693293 -2.411292 -22.285155 -77.837368 -75.398617 -11.297550 -39.020119 18.698477 6.144065 7.799568 23.436305 -51.358709 -27.232426 127.111975 69.620324 136.586491 -9.940618 -15.982638 7.376048 -0.071211 0.032240 -0.035204 24.840466 -54.910295 -21.361601 99.743658 66.586237 121.922886 -1.979461 -8.290879 -9.105899 0.061461 0.003931 0.037607
-25.195026 47.597638 -22.780876 27.323551 -33.074010 -0.770604 2.226415 12.097378 1.561328 1.241625 6.922698 0.837238 1.570858 8.650344 1.072158 1.241625 6.922698 0.837238 3.978533 25.388148 -1.585475 4.716448 2.010313 -2.643899 8.993558 -1.471808 -2.589997 11.798715 -22.464729 70.056700 73.877223 13.000754 11.641754 -12.620406 3.638276 -7.086449 6.292696 -3.991166 1.680247 -2.356781 -22.252735 -77.915820 -75.443314 -11.264058 -39.008008 18.698934 6.186473 7.794608 23.446615 -51.360286 -27.231888 127.108073 69.620200 136.582701 -9.941532 -15.981303 7.379337 -0.072481 0.032035 -0.035496 24.849018 -54.911722 -21.356191 99.735442 66.588370 121.914094 -1.977989 -8.289142 -9.108467 0.059115 0.003391 0.039046
-25.195716 47.597699 -22.782623 27.312243 -33.076510 -0.762896 2.227553 12.106466 1.555545 1.244645 6.927935 0.836607 1.574644 8.656886 1.071447 1.244645 6.927935 0.836607 3.978355 25.383993 -1.587274 4.716607 2.005210 -2.645810 8.998479 -1.477065 -2.586651 11.754265 -22.468351 70.115014 73.911676 12.999752 11.602373 -12.660828 3.677750 -7.068737 6.295520 -4.004851 1.672292 -2.310390 -22.222608 -77.985750 -75.487861 -11.236735 -38.996335 18.696672 6.229128 7.790284 23.460917 -51.357573 -27.236171 127.105245 69.618180 136.579936 -9.947783 -15.981998 7.385453 -0.075695 0.032533 -0.036920 24.861592 -54.908042 -21.354975 99.726226 66.590199 121.904152 -1.979588 -8.289472 -9.109986 0.056795 0.003092 0.039657
